<svg xmlns="http://www.w3.org/2000/svg" xmlns:xlink="http://www.w3.org/1999/xlink" width="396" zoomAndPan="magnify" viewBox="0 0 297 119.999999" height="160" preserveAspectRatio="xMidYMid meet" version="1.2"><defs/><g id="d18967de1f"><g style="fill:#ffffff;fill-opacity:1;"><g transform="translate(0.0118266, 95.190394)"><path style="stroke:none" d="M 20.609375 -58.953125 L 20.609375 -36.484375 L 33.3125 -36.484375 C 37.019531 -36.484375 39.90625 -37.484375 41.96875 -39.484375 C 44.039062 -41.492188 45.078125 -44.238281 45.078125 -47.71875 C 45.078125 -50 44.585938 -51.976562 43.609375 -53.65625 C 42.640625 -55.332031 41.265625 -56.632812 39.484375 -57.5625 C 37.710938 -58.488281 35.609375 -58.953125 33.171875 -58.953125 Z M 20.609375 -25.796875 L 20.609375 0 L 5.859375 0 L 5.859375 -70.484375 L 34.734375 -70.484375 C 40.128906 -70.484375 44.722656 -69.578125 48.515625 -67.765625 C 52.316406 -65.960938 55.21875 -63.382812 57.21875 -60.03125 C 59.21875 -56.675781 60.21875 -52.671875 60.21875 -48.015625 C 60.21875 -45.015625 59.710938 -42.1875 58.703125 -39.53125 C 57.703125 -36.882812 56.25 -34.566406 54.34375 -32.578125 C 52.4375 -30.585938 50.128906 -29.054688 47.421875 -27.984375 L 62.28125 0 L 45.578125 0 L 32.4375 -25.796875 Z M 20.609375 -25.796875 "/></g></g><g style="fill:#ffffff;fill-opacity:1;"><g transform="translate(64.034176, 95.190394)"><path style="stroke:none" d="M 53 -52.359375 L 53 0 L 39.21875 0 L 39.21875 -9.421875 L 38.921875 -9.421875 C 37.617188 -6.140625 35.671875 -3.582031 33.078125 -1.75 C 30.492188 0.0703125 27.21875 0.984375 23.25 0.984375 C 19.46875 0.984375 16.160156 0.203125 13.328125 -1.359375 C 10.492188 -2.929688 8.296875 -5.179688 6.734375 -8.109375 C 5.171875 -11.035156 4.390625 -14.535156 4.390625 -18.609375 L 4.390625 -52.359375 L 18.65625 -52.359375 L 18.65625 -21.59375 C 18.65625 -18.101562 19.492188 -15.445312 21.171875 -13.625 C 22.847656 -11.800781 25.265625 -10.890625 28.421875 -10.890625 C 30.546875 -10.890625 32.378906 -11.359375 33.921875 -12.296875 C 35.460938 -13.242188 36.648438 -14.582031 37.484375 -16.3125 C 38.316406 -18.039062 38.734375 -20.0625 38.734375 -22.375 L 38.734375 -52.359375 Z M 53 -52.359375 "/></g></g><g style="fill:#ffffff;fill-opacity:1;"><g transform="translate(121.659175, 95.190394)"><path style="stroke:none" d="M 35.75 0.828125 C 31.90625 0.828125 28.566406 -0.0390625 25.734375 -1.78125 C 22.898438 -3.519531 20.769531 -5.921875 19.34375 -8.984375 L 19.046875 -8.984375 L 19.046875 0 L 4.984375 0 L 4.984375 -70.484375 L 19.25 -70.484375 L 19.25 -43.28125 L 19.53125 -43.28125 C 20.96875 -46.375 23.085938 -48.796875 25.890625 -50.546875 C 28.691406 -52.304688 31.960938 -53.1875 35.703125 -53.1875 C 40.097656 -53.1875 43.890625 -52.113281 47.078125 -49.96875 C 50.273438 -47.820312 52.726562 -44.726562 54.4375 -40.6875 C 56.144531 -36.644531 57 -31.8125 57 -26.1875 C 57 -20.582031 56.144531 -15.757812 54.4375 -11.71875 C 52.726562 -7.6875 50.285156 -4.585938 47.109375 -2.421875 C 43.929688 -0.253906 40.144531 0.828125 35.75 0.828125 Z M 30.8125 -41.765625 C 28.539062 -41.765625 26.523438 -41.113281 24.765625 -39.8125 C 23.003906 -38.507812 21.632812 -36.691406 20.65625 -34.359375 C 19.6875 -32.035156 19.203125 -29.3125 19.203125 -26.1875 C 19.203125 -23.019531 19.6875 -20.269531 20.65625 -17.9375 C 21.632812 -15.613281 22.992188 -13.816406 24.734375 -12.546875 C 26.484375 -11.273438 28.507812 -10.640625 30.8125 -10.640625 C 33.195312 -10.640625 35.25 -11.265625 36.96875 -12.515625 C 38.695312 -13.773438 40.03125 -15.566406 40.96875 -17.890625 C 41.914062 -20.222656 42.390625 -22.988281 42.390625 -26.1875 C 42.390625 -29.375 41.914062 -32.128906 40.96875 -34.453125 C 40.03125 -36.785156 38.695312 -38.585938 36.96875 -39.859375 C 35.25 -41.128906 33.195312 -41.765625 30.8125 -41.765625 Z M 30.8125 -41.765625 "/></g></g><g style="fill:#ffffff;fill-opacity:1;"><g transform="translate(181.384067, 95.190394)"><path style="stroke:none" d="M 8.453125 -64.421875 L 22.71875 -64.421875 L 22.71875 -52.359375 L 32.390625 -52.359375 L 32.390625 -41.609375 L 22.71875 -41.609375 L 22.71875 -16.5625 C 22.71875 -12.613281 24.765625 -10.640625 28.859375 -10.640625 C 30.203125 -10.640625 31.359375 -10.722656 32.328125 -10.890625 L 32.328125 -0.390625 C 31.617188 -0.222656 30.664062 -0.0820312 29.46875 0.03125 C 28.28125 0.144531 26.972656 0.203125 25.546875 0.203125 C 21.441406 0.203125 18.132812 -0.273438 15.625 -1.234375 C 13.125 -2.203125 11.300781 -3.742188 10.15625 -5.859375 C 9.019531 -7.972656 8.453125 -10.722656 8.453125 -14.109375 L 8.453125 -41.609375 L 1.078125 -41.609375 L 1.078125 -52.359375 L 8.453125 -52.359375 Z M 8.453125 -64.421875 "/></g></g><g style="fill:#ffffff;fill-opacity:1;"><g transform="translate(216.935761, 95.190394)"><path style="stroke:none" d="M 4.984375 0 L 4.984375 -70.484375 L 19.25 -70.484375 L 19.25 0 Z M 4.984375 0 "/></g></g><g style="fill:#ffffff;fill-opacity:1;"><g transform="translate(241.157794, 95.190394)"><path style="stroke:none" d="M 28.140625 -42.9375 C 26.054688 -42.9375 24.195312 -42.445312 22.5625 -41.46875 C 20.9375 -40.488281 19.625 -39.148438 18.625 -37.453125 C 17.632812 -35.765625 17.0625 -33.832031 16.90625 -31.65625 L 39.125 -31.65625 C 39.03125 -33.894531 38.507812 -35.859375 37.5625 -37.546875 C 36.613281 -39.242188 35.332031 -40.566406 33.71875 -41.515625 C 32.113281 -42.460938 30.253906 -42.9375 28.140625 -42.9375 Z M 39.3125 -16.015625 L 52.40625 -16.015625 C 51.882812 -12.597656 50.554688 -9.601562 48.421875 -7.03125 C 46.296875 -4.457031 43.53125 -2.453125 40.125 -1.015625 C 36.71875 0.410156 32.851562 1.125 28.53125 1.125 C 23.15625 1.125 18.535156 0.0351562 14.671875 -2.140625 C 10.816406 -4.328125 7.863281 -7.445312 5.8125 -11.5 C 3.757812 -15.550781 2.734375 -20.363281 2.734375 -25.9375 C 2.734375 -30.101562 3.316406 -33.878906 4.484375 -37.265625 C 5.660156 -40.648438 7.347656 -43.546875 9.546875 -45.953125 C 11.742188 -48.367188 14.394531 -50.226562 17.5 -51.53125 C 20.613281 -52.832031 24.109375 -53.484375 27.984375 -53.484375 C 33.066406 -53.484375 37.460938 -52.398438 41.171875 -50.234375 C 44.890625 -48.066406 47.765625 -45.019531 49.796875 -41.09375 C 51.828125 -37.175781 52.84375 -32.5625 52.84375 -27.25 L 52.84375 -22.90625 L 16.75 -22.90625 L 16.75 -22.03125 C 16.75 -19.550781 17.242188 -17.359375 18.234375 -15.453125 C 19.234375 -13.554688 20.632812 -12.078125 22.4375 -11.015625 C 24.25 -9.953125 26.359375 -9.421875 28.765625 -9.421875 C 31.367188 -9.421875 33.613281 -10.023438 35.5 -11.234375 C 37.394531 -12.441406 38.664062 -14.035156 39.3125 -16.015625 Z M 39.3125 -16.015625 "/></g></g><g style="fill:#ffffff;fill-opacity:1;"><g transform="translate(0.0118266, 95.190394)"><path style="stroke:none" d="M 20.609375 -58.953125 L 20.609375 -36.484375 L 33.3125 -36.484375 C 37.019531 -36.484375 39.90625 -37.484375 41.96875 -39.484375 C 44.039062 -41.492188 45.078125 -44.238281 45.078125 -47.71875 C 45.078125 -50 44.585938 -51.976562 43.609375 -53.65625 C 42.640625 -55.332031 41.265625 -56.632812 39.484375 -57.5625 C 37.710938 -58.488281 35.609375 -58.953125 33.171875 -58.953125 Z M 20.609375 -25.796875 L 20.609375 0 L 5.859375 0 L 5.859375 -70.484375 L 34.734375 -70.484375 C 40.128906 -70.484375 44.722656 -69.578125 48.515625 -67.765625 C 52.316406 -65.960938 55.21875 -63.382812 57.21875 -60.03125 C 59.21875 -56.675781 60.21875 -52.671875 60.21875 -48.015625 C 60.21875 -45.015625 59.710938 -42.1875 58.703125 -39.53125 C 57.703125 -36.882812 56.25 -34.566406 54.34375 -32.578125 C 52.4375 -30.585938 50.128906 -29.054688 47.421875 -27.984375 L 62.28125 0 L 45.578125 0 L 32.4375 -25.796875 Z M 20.609375 -25.796875 "/></g></g><g style="fill:#ffffff;fill-opacity:1;"><g transform="translate(64.034176, 95.190394)"><path style="stroke:none" d="M 53 -52.359375 L 53 0 L 39.21875 0 L 39.21875 -9.421875 L 38.921875 -9.421875 C 37.617188 -6.140625 35.671875 -3.582031 33.078125 -1.75 C 30.492188 0.0703125 27.21875 0.984375 23.25 0.984375 C 19.46875 0.984375 16.160156 0.203125 13.328125 -1.359375 C 10.492188 -2.929688 8.296875 -5.179688 6.734375 -8.109375 C 5.171875 -11.035156 4.390625 -14.535156 4.390625 -18.609375 L 4.390625 -52.359375 L 18.65625 -52.359375 L 18.65625 -21.59375 C 18.65625 -18.101562 19.492188 -15.445312 21.171875 -13.625 C 22.847656 -11.800781 25.265625 -10.890625 28.421875 -10.890625 C 30.546875 -10.890625 32.378906 -11.359375 33.921875 -12.296875 C 35.460938 -13.242188 36.648438 -14.582031 37.484375 -16.3125 C 38.316406 -18.039062 38.734375 -20.0625 38.734375 -22.375 L 38.734375 -52.359375 Z M 53 -52.359375 "/></g></g><g style="fill:#ffffff;fill-opacity:1;"><g transform="translate(121.659175, 95.190394)"><path style="stroke:none" d="M 35.75 0.828125 C 31.90625 0.828125 28.566406 -0.0390625 25.734375 -1.78125 C 22.898438 -3.519531 20.769531 -5.921875 19.34375 -8.984375 L 19.046875 -8.984375 L 19.046875 0 L 4.984375 0 L 4.984375 -70.484375 L 19.25 -70.484375 L 19.25 -43.28125 L 19.53125 -43.28125 C 20.96875 -46.375 23.085938 -48.796875 25.890625 -50.546875 C 28.691406 -52.304688 31.960938 -53.1875 35.703125 -53.1875 C 40.097656 -53.1875 43.890625 -52.113281 47.078125 -49.96875 C 50.273438 -47.820312 52.726562 -44.726562 54.4375 -40.6875 C 56.144531 -36.644531 57 -31.8125 57 -26.1875 C 57 -20.582031 56.144531 -15.757812 54.4375 -11.71875 C 52.726562 -7.6875 50.285156 -4.585938 47.109375 -2.421875 C 43.929688 -0.253906 40.144531 0.828125 35.75 0.828125 Z M 30.8125 -41.765625 C 28.539062 -41.765625 26.523438 -41.113281 24.765625 -39.8125 C 23.003906 -38.507812 21.632812 -36.691406 20.65625 -34.359375 C 19.6875 -32.035156 19.203125 -29.3125 19.203125 -26.1875 C 19.203125 -23.019531 19.6875 -20.269531 20.65625 -17.9375 C 21.632812 -15.613281 22.992188 -13.816406 24.734375 -12.546875 C 26.484375 -11.273438 28.507812 -10.640625 30.8125 -10.640625 C 33.195312 -10.640625 35.25 -11.265625 36.96875 -12.515625 C 38.695312 -13.773438 40.03125 -15.566406 40.96875 -17.890625 C 41.914062 -20.222656 42.390625 -22.988281 42.390625 -26.1875 C 42.390625 -29.375 41.914062 -32.128906 40.96875 -34.453125 C 40.03125 -36.785156 38.695312 -38.585938 36.96875 -39.859375 C 35.25 -41.128906 33.195312 -41.765625 30.8125 -41.765625 Z M 30.8125 -41.765625 "/></g></g><g style="fill:#ffffff;fill-opacity:1;"><g transform="translate(181.384067, 95.190394)"><path style="stroke:none" d="M 8.453125 -64.421875 L 22.71875 -64.421875 L 22.71875 -52.359375 L 32.390625 -52.359375 L 32.390625 -41.609375 L 22.71875 -41.609375 L 22.71875 -16.5625 C 22.71875 -12.613281 24.765625 -10.640625 28.859375 -10.640625 C 30.203125 -10.640625 31.359375 -10.722656 32.328125 -10.890625 L 32.328125 -0.390625 C 31.617188 -0.222656 30.664062 -0.0820312 29.46875 0.03125 C 28.28125 0.144531 26.972656 0.203125 25.546875 0.203125 C 21.441406 0.203125 18.132812 -0.273438 15.625 -1.234375 C 13.125 -2.203125 11.300781 -3.742188 10.15625 -5.859375 C 9.019531 -7.972656 8.453125 -10.722656 8.453125 -14.109375 L 8.453125 -41.609375 L 1.078125 -41.609375 L 1.078125 -52.359375 L 8.453125 -52.359375 Z M 8.453125 -64.421875 "/></g></g><g style="fill:#ffffff;fill-opacity:1;"><g transform="translate(216.935761, 95.190394)"><path style="stroke:none" d="M 4.984375 0 L 4.984375 -70.484375 L 19.25 -70.484375 L 19.25 0 Z M 4.984375 0 "/></g></g><g style="fill:#ffffff;fill-opacity:1;"><g transform="translate(241.157794, 95.190394)"><path style="stroke:none" d="M 28.140625 -42.9375 C 26.054688 -42.9375 24.195312 -42.445312 22.5625 -41.46875 C 20.9375 -40.488281 19.625 -39.148438 18.625 -37.453125 C 17.632812 -35.765625 17.0625 -33.832031 16.90625 -31.65625 L 39.125 -31.65625 C 39.03125 -33.894531 38.507812 -35.859375 37.5625 -37.546875 C 36.613281 -39.242188 35.332031 -40.566406 33.71875 -41.515625 C 32.113281 -42.460938 30.253906 -42.9375 28.140625 -42.9375 Z M 39.3125 -16.015625 L 52.40625 -16.015625 C 51.882812 -12.597656 50.554688 -9.601562 48.421875 -7.03125 C 46.296875 -4.457031 43.53125 -2.453125 40.125 -1.015625 C 36.71875 0.410156 32.851562 1.125 28.53125 1.125 C 23.15625 1.125 18.535156 0.0351562 14.671875 -2.140625 C 10.816406 -4.328125 7.863281 -7.445312 5.8125 -11.5 C 3.757812 -15.550781 2.734375 -20.363281 2.734375 -25.9375 C 2.734375 -30.101562 3.316406 -33.878906 4.484375 -37.265625 C 5.660156 -40.648438 7.347656 -43.546875 9.546875 -45.953125 C 11.742188 -48.367188 14.394531 -50.226562 17.5 -51.53125 C 20.613281 -52.832031 24.109375 -53.484375 27.984375 -53.484375 C 33.066406 -53.484375 37.460938 -52.398438 41.171875 -50.234375 C 44.890625 -48.066406 47.765625 -45.019531 49.796875 -41.09375 C 51.828125 -37.175781 52.84375 -32.5625 52.84375 -27.25 L 52.84375 -22.90625 L 16.75 -22.90625 L 16.75 -22.03125 C 16.75 -19.550781 17.242188 -17.359375 18.234375 -15.453125 C 19.234375 -13.554688 20.632812 -12.078125 22.4375 -11.015625 C 24.25 -9.953125 26.359375 -9.421875 28.765625 -9.421875 C 31.367188 -9.421875 33.613281 -10.023438 35.5 -11.234375 C 37.394531 -12.441406 38.664062 -14.035156 39.3125 -16.015625 Z M 39.3125 -16.015625 "/></g></g></g></svg>